<?xml version="1.0" encoding="UTF-8" standalone="no"?>
<!DOCTYPE svg PUBLIC "-//W3C//DTD SVG 1.1//EN" "http://www.w3.org/Graphics/SVG/1.1/DTD/svg11.dtd">
<svg width="100%" height="100%" viewBox="0 0 1080 1080" version="1.1" xmlns="http://www.w3.org/2000/svg" xmlns:xlink="http://www.w3.org/1999/xlink" xml:space="preserve" xmlns:serif="http://www.serif.com/" style="fill-rule:evenodd;clip-rule:evenodd;stroke-linejoin:round;stroke-miterlimit:2;">
    <g>
        <g transform="matrix(1,0,0,1,-7.15695,-12.9667)">
            <circle cx="547.157" cy="552.967" r="527.033" style="fill:white;"/>
        </g>
        <g transform="matrix(68.719,0,0,68.719,-2000.35,-271.417)">
            <path d="M36.939,19C35.976,19 35.061,18.811 34.192,18.434C33.324,18.056 32.559,17.537 31.899,16.876C31.238,16.216 30.719,15.451 30.341,14.583C29.964,13.714 29.775,12.799 29.775,11.836C29.775,10.854 29.964,9.92 30.341,9.033C30.719,8.146 31.238,7.372 31.899,6.711C32.559,6.05 33.324,5.54 34.192,5.182C35.061,4.804 35.976,4.616 36.939,4.616C37.92,4.616 38.855,4.804 39.742,5.182C40.629,5.54 41.403,6.05 42.064,6.711C42.725,7.372 43.234,8.146 43.593,9.033C43.971,9.92 44.159,10.854 44.159,11.836C44.159,12.799 43.971,13.714 43.593,14.583C43.234,15.451 42.725,16.216 42.064,16.876C41.403,17.537 40.629,18.056 39.742,18.434C38.855,18.811 37.92,19 36.939,19ZM36.939,7.136C35.674,7.136 34.589,7.589 33.683,8.495C33.248,8.929 32.908,9.439 32.663,10.024C32.418,10.609 32.295,11.213 32.295,11.836C32.295,12.459 32.418,13.054 32.663,13.62C32.908,14.186 33.248,14.687 33.683,15.121C34.117,15.555 34.608,15.895 35.155,16.14C35.721,16.386 36.316,16.508 36.939,16.508C37.562,16.508 38.166,16.386 38.751,16.14C39.336,15.895 39.837,15.555 40.252,15.121C40.667,14.687 40.997,14.186 41.243,13.62C41.488,13.054 41.611,12.459 41.611,11.836C41.611,11.213 41.488,10.609 41.243,10.024C40.997,9.439 40.667,8.929 40.252,8.495C39.837,8.061 39.336,7.73 38.751,7.504C38.185,7.258 37.581,7.136 36.939,7.136ZM36.024,11.092C35.726,10.827 35.538,10.44 35.538,10.01C35.538,9.21 36.186,8.562 36.986,8.562C37.786,8.562 38.434,9.21 38.434,10.01C38.434,10.409 38.272,10.771 38.01,11.033L38.434,14.676L35.538,14.676L36.024,11.092Z" style="fill:rgb(0,101,252);"/>
        </g>
    </g>
</svg>
